#!OML:ASF F:\VICON\USERDATA\INSTALL\rory3\rory3.ASF
:FULLY-SPECIFIED
:DEGREES
10
root -0.6641630000000001 17.2788 -22.102699999999967 4.136129999999999 2.7531199999999982 -4.895260000000006
lfemur -41.89990000000004 0.2086680000000003 -12.561999999999982
ltibia 97.70530000000008
lfoot 7.204310000000003 -9.100879999999998
ltoes 2.3064299999999776
rfemur -7.542069999999979 5.085750000000006 36.45569999999999
rtibia 44.41369999999998
rfoot -21.964600000000004 -19.292699999999975
rtoes -12.27890000000002
lowerback 17.3668 0.4108060000000001 3.495190000000002
upperback -1.0276600000000005 1.6384899999999998 3.2771
thorax -10.931900000000002 0.6863430000000004 1.1749500000000004
lowerneck -16.111399999999996 -4.85814 -2.4412800000000003
upperneck 12.804799999999998 -6.350320000000003 2.0628599999999997
head 6.68675 -3.00081 0.3967950000000006
lclavicle -1.2125899999999984e-14 -1.7890600000000028e-14
lhumerus -59.163099999999986 -13.2979 101.19
lradius 100.55500000000002
lwrist 28.955300000000005
lhand -31.4941 -0.1885800000000002
lfingers nan
lthumb -4.76027 29.7379
rclavicle -1.2125899999999984e-14 -1.7890600000000028e-14
rhumerus -40.77780000000002 9.596470000000002 -95.6774
rradius 115.071
rwrist -19.54570000000001
rhand -22.112000000000002 39.58809999999999
rfingers nan
rthumb 4.30067 9.651789999999998
11
root -0.600558 17.678 -20.367699999999967 4.730289999999999 3.0089800000000038 -4.628489999999994
lfemur -43.310699999999926 -1.0503499999999997 -14.280200000000008
ltibia 86.08489999999996
lfoot 1.3799099999999966 -5.5748400000000045
ltoes -18.936599999999995
rfemur -0.48970300000001643 5.218819999999996 36.12389999999999
rtibia 39.536599999999964
rfoot -12.576999999999995 -15.406500000000015
rtoes -18.299099999999978
lowerback 13.8673 1.5460599999999982 4.387779999999998
upperback -0.30821000000000015 2.9958000000000036 2.7182700000000013
thorax -8.054429999999998 1.330439999999998 -0.18979899999999916
lowerneck -17.902500000000003 -5.66108 -2.02929
upperneck 13.5717 -7.474170000000001 1.7878299999999983
head 7.2342 -3.5169600000000014 0.060315300000000516
lclavicle 1.272219999999997e-14 1.9083299999999967e-14
lhumerus -60.959400000000024 -13.0437 100.803
lradius 101.88399999999999
lwrist 26.658500000000004
lhand -32.2647 -4.128509999999996
lfingers nan
lthumb -5.504309999999999 25.78
rclavicle 1.272219999999997e-14 1.9083299999999967e-14
rhumerus -39.95700000000001 10.6869 -95.7996
rradius 119.667
rwrist -18.89159999999999
rhand -21.21270000000001 42.44030000000001
rfingers nan
rthumb 5.168969999999993 12.52340000000001
12
root -0.5463790000000002 18.0387 -18.680199999999974 4.648779999999999 5.70366000000001 -3.8006500000000027
lfemur -42.83690000000004 -4.548499999999994 -16.025500000000015
ltibia 71.7988
lfoot 1.2702500000000048 -4.986569999999993
ltoes -14.561499999999992
rfemur 5.370619999999974 3.249039999999998 34.98719999999999
rtibia 34.86739999999995
rfoot 1.710089999999997 -10.441900000000006
rtoes -17.794100000000032
lowerback 10.659300000000007 1.497709999999999 4.9464599999999965
upperback 0.35555399999999804 2.726820000000003 2.2798400000000014
thorax -5.493960000000007 1.2428900000000007 -0.8055830000000017
lowerneck -17.075900000000004 -5.959360000000001 -2.1182599999999994
upperneck 13.404500000000002 -7.861749999999999 1.7473900000000013
head 7.04915 -3.7219299999999986 0.04339080000000117
lclavicle 5.2876700000000125e-14 8.746529999999996e-15
lhumerus -62.288000000000004 -11.004499999999997 99.536
lradius 102.64000000000001
lwrist 27.295300000000005
lhand -31.3852 -1.6293700000000046
lfingers nan
lthumb -4.6551 28.299499999999995
rclavicle 5.2876700000000125e-14 8.746529999999996e-15
rhumerus -40.072299999999984 12.594300000000002 -96.0452
rradius 122.46500000000002
rwrist -15.649600000000001
rhand -20.350199999999997 42.4932
rfingers nan
rthumb 6.001709999999998 12.598199999999995
13
root -0.4844669999999996 18.3723 -16.94369999999995 4.279490000000001 6.790100000000016 -3.0734800000000027
lfemur -39.82130000000002 -6.52979 -17.46239999999999
ltibia 54.9098
lfoot -0.1707070000000006 -5.470959999999995
ltoes -17.277799999999992
rfemur 11.07430000000003 2.8927100000000014 33.78229999999999
rtibia 31.015400000000056
rfoot 17.59760000000001 -7.06948
rtoes -9.064140000000009
lowerback 11.898800000000003 1.553299999999998 4.9703599999999994
upperback -1.3770399999999994 2.947449999999997 1.8142400000000007
thorax -8.01071 1.2534000000000014 -1.4153600000000002
lowerneck -16.570800000000002 -6.1133600000000055 -1.9988200000000003
upperneck 15.764399999999997 -8.097129999999995 1.2708600000000008
head 7.716889999999999 -3.8506200000000006 -0.18482200000000104
lclavicle 2.877409999999999e-14 -8.34895999999998e-15
lhumerus -67.23550000000003 -7.878899999999991 98.213
lradius 103.384
lwrist 29.5551
lhand -32.9395 -0.24947799999999914
lfingers nan
lthumb -6.155849999999999 29.6411
rclavicle 2.877409999999999e-14 -8.34895999999998e-15
rhumerus -44.0403 14.355299999999996 -97.4238
rradius 124.49700000000001
rwrist -15.5465
rhand -16.673100000000005 46.900799999999975
rfingers nan
rthumb 9.550720000000002 17.13729999999999
